/* XPM */
static char *result[] = {
/* columns rows colors chars-per-pixel */
"32 32 79 1 ",
"  c #010145",
". c #020249",
"X c #00004D",
"o c #000050",
"O c #000052",
"+ c #000053",
"@ c #000055",
"# c #000057",
"$ c #000058",
"% c #00005E",
"& c #000065",
"* c #000066",
"= c #8485CB",
"- c #8585CB",
"; c #8686CB",
": c #8686CC",
"> c #8787CC",
", c #8788CC",
"< c #8889C8",
"1 c #8989C9",
"2 c #8888CC",
"3 c #898ACD",
"4 c #8A8ACD",
"5 c #8B8BCD",
"6 c #8889CE",
"7 c #8B8CCE",
"8 c #8C8CCE",
"9 c #8C8DCF",
"0 c #8D8DCF",
"q c #8E8FCF",
"w c #9B9CCE",
"e c #8D8ED0",
"r c #8E8ED0",
"t c #8E8FD0",
"y c #8F8FD0",
"u c #8F90D0",
"i c #9090D0",
"p c #9091D0",
"a c #9191D0",
"s c #9090D1",
"d c #9091D1",
"f c #9192D0",
"g c #9192D1",
"h c #9292D0",
"j c #9292D1",
"k c #9293D1",
"l c #9393D1",
"z c #9394D2",
"x c #9494D1",
"c c #9595D1",
"v c #9797D1",
"b c #9494D2",
"n c #9495D2",
"m c #9595D2",
"M c #9596D2",
"N c #9596D3",
"B c #9696D2",
"V c #9697D2",
"C c #9696D3",
"Z c #9697D3",
"A c #9797D3",
"S c #9798D3",
"D c #9999D2",
"F c #9999D3",
"G c #9A9AD3",
"H c #9A9BD3",
"J c #9B9BD3",
"K c #9898D4",
"L c #9999D4",
"P c #999AD4",
"I c #9C9CD5",
"U c #9C9DD5",
"Y c #9D9ED5",
"T c #9F9FD5",
"R c #9E9ED6",
"E c #9D9DD8",
"W c #9F9FD8",
"Q c #9F9FD9",
"! c None",
/* pixels */
"!!!!!!!!!!!!!!!!!!!!!!!!!!!!!!!!",
"!!!!!!!!!!!!!!!!!!!!!!!!!!!!!!!!",
"!!!!!!!!!!!!!!!!!!!!!!!!!!!!!!!!",
"!!!!!!!!!!!!!!!!!!!!!!!!!!!!!!!!",
"!!!!!!!!!!<!mZ!!!!!V!!!!!!!!!!!!",
"!!!!!!!!!!Zn4,8t!!9,fiW!!!!!!!!!",
"!!!!!!!!!ci75!!!!!!3y4L!!!!!!!!!",
"!!!!!!!!NYG!!!!!!!!!!!!!!!!!!!!!",
"!!!!!!!wB!!!!!!!!!!!!!!!!!!!!!!!",
"!!!!!EZiu!!!!!!!!!!!!!!!!!!!!!!!",
"!!!!!y>v!!!!!!!!!!!!!!!!!eC!!!!!",
"!!!!!i3!!!!!!!!!!!!!!!!!!6a!!!!!",
"!!!!n;!!!!!!!!!!!!!!!!!!!4-u!!!!",
"!!!!!9!!!!!!!!!!!!!!!!!!!!-z!!!!",
"!!!!!!!!!!%!#!!!!.!!!+!!!!q!!!!!",
"!!!!!!!!!!X!*@o!!$O #&!!!!s!!!!!",
"!!!!!j!!!!!!!!!!!!!!!!!!!!!!!!!!",
"!!!!!8!!!!!!!!!!!!!!!!!!!!!!!!!!",
"!!!!k:!!!!!!!!!!!!!!!!!!!!i!!!!!",
"!!!!i,4!!!!!!!!!!!!!!!!!!23Z!!!!",
"!!!!!u=!!!!!!!!!!!!!!!!!!9bA!!!!",
"!!!!!g!!!!!!!!!!!!!!!!!!J>y!!!!!",
"!!!!!!!!!!!!!!!!!!!!!!!AkAE!!!!!",
"!!!!!!!!!!!!!!!!!!!!!!!Cw!!!!!!!",
"!!!!!!!!!r!!!!!!!!!!hHUn!!!!!!!!",
"!!!!!!!!!S>llD!!!!!y30x!!!!!!!!!",
"!!!!!!!!!QdMimRFCp47kA!!!!!!!!!!",
"!!!!!!!!!!!!PI!S!TKz!1!!!!!!!!!!",
"!!!!!!!!!!!!!!!!!!!!!!!!!!!!!!!!",
"!!!!!!!!!!!!!!!!!!!!!!!!!!!!!!!!",
"!!!!!!!!!!!!!!!!!!!!!!!!!!!!!!!!",
"!!!!!!!!!!!!!!!!!!!!!!!!!!!!!!!!"
};
