/* XPM */
static char *result[] = {
/* columns rows colors chars-per-pixel */
"64 64 37 1 ",
"  c #00004C",
". c #000052",
"X c #00005C",
"o c #000064",
"O c #00006C",
"+ c #000074",
"@ c #080874",
"# c #00007B",
"$ c navy",
"% c #5058B7",
"& c #565EBA",
"* c #6262BD",
"= c #6A6BBF",
"- c #6D6EC2",
"; c #6F74C5",
": c #7374C4",
"> c #7778C5",
", c #7A7BC6",
"< c #7D7EC8",
"1 c #7F80C9",
"2 c #8081C7",
"3 c #8384CB",
"4 c #8788CC",
"5 c #8B8BCE",
"6 c #9092CF",
"7 c #8E8ED0",
"8 c #8F90D0",
"9 c #9394D2",
"0 c #9798D3",
"q c #9B9CD5",
"w c #9FA0D7",
"e c #9FA0D8",
"r c #A1A1D7",
"t c #A4A5D9",
"y c #A9AADB",
"u c #B0B1DE",
"i c None",
/* pixels */
"iiiiiiiiiiiiiiiiiiiiiiiiiiiiiiiiiiiiiiiiiiiiiiiiiiiiiiiiiiiiiiii",
"iiiiiiiiiiiiiiiiiiiiiiiiiiiiiiiiiiiiiiiiiiiiiiiiiiiiiiiiiiiiiiii",
"iiiiiiiiiiiiiiiiiiiiiiiiiiiiiiiiiiiiiiiiiiiiiiiiiiiiiiiiiiiiiiii",
"iiiiiiiiiiiiiiiiiiiiiiiiiiiiiiiiiiiiiiiiiiiiiiiiiiiiiiiiiiiiiiii",
"iiiiiiiiiiiiiiiiiiiiiiiiiiiiiiiiiiiiiiiiiiiiiiiiiiiiiiiiiiiiiiii",
"iiiiiiiiiiiiiiiiiiiiiiiiiiiiiiiiiiiiiiiiiiiiiiiiiiiiiiiiiiiiiiii",
"iiiiiiiiiiiiiiiiiiiiiiiiiiiiiiiiiii;iiiiiiiiiiiiiiiiiiiiiiiiiiii",
"iiiiiiiiiiiiiiiiiiiiiiiiiq5i1iiiiiiiiiq2iiiiiiiiiiiiiiiiiiiiiiii",
"iiiiiiiiiiiiiiiiiiiii>yiiuyy5iiiiiiiqiq499iiiiiiiiiiiiiiiiiiiiii",
"iiiiiiiiiiiiiiii&iii-qii74,qiiii,5i8iirqiiiii<iiiiiiiiiiiiiiiiii",
"iiiiiiiiiiiiiiiiiiiq9qrqq1<2i00i>i9424,4qi,tq2iiiiiiiiiiiiiiiiii",
"iiiiiiiiiiiiiiii:iiiw0445<03>9<iiiiiii<420q5yyiiiiiiiiiiiiiiiiii",
"iiiiiiiiiiiiiiiiii9i0,5099ii<iiiiiii,i,i54,:qi1iiiiiiiiiiiiiiiii",
"iiiiiiiiiiiiiiiiii944q,0<iiiiiiiiiiiii344q990iqiiiiiiiiiiiiiiiii",
"iiiiiiiiiiiiiiiiqr90iqqiiiiiiiiiiiiii*iiiii<iiiiiiiiiiiiiiiiiiii",
"iiiiiiiiiiiiiiii39rii4iiiiiiiiiiiiiiiiiiiii:9i9iiiiiiiiiiiiiiiii",
"iiiiiiiiiiiiiiir<0iiiiiiiiiiiiiiiiiiiiiiiiiiiii,4iii;i&iiiiiiiii",
"iiiiiiiiiiii3qqqyy5iiiiiiiiiiiiiiiiiiiiiiiiiiiiiiiiiiiiiiiiiiiii",
"iiiiiiiiii<yiqq043iiiiiiiiiiiiiiiiiiiiiiiiiiiiiii599iiiiiiiiiiii",
"iiiiiiiiiiqy08207iiiiiiiiiiiiiiiiiiiiiiiiiiiiiiii74iiiiiiiiiiiii",
"iiiiiiiiiii4:5<:iiiiiiiiiiiiiiiiiiiiiiiiiiiiiiiiii4ii0-iiiiiiiii",
"iiiiiiiiii,0,7yiiiiiiiiiiiiiiiiiiiiiiiiiiiiiiiiiii0:9qi:iiiiiiii",
"iiiiiiii9ii047iiiiiiiiiiiiiiiiiiiiiiiiiiiiiiiiiiii:43iiiiiiiiiii",
"iiiiiiii9iq<41iiiiiiiiiiiiiiiiiiiiiiiiiiiiiiiiiiii09<iiiiiiiiiii",
"iiiiiii12q44i,iiiiiiiiiiiiiiiiiiiiiiiiiiiiiiiiiiii<44q4iiiiiiiii",
"iiiiii7qqq,,:iiiiiiiiiiiiiiiiiiiiiiiiiiiiiiiiiiiiii9,>3iiiiiiiii",
"iiiiiiiiii4iii*iiiiiiiiiiiiiiiiiiiiiiiiiiiiiiiiiiiii8>,yiiiiiiii",
"iiiiiiiiii2iiiiiiiiiiiiiiiiiiiiiiiiiiiiiiiiiiiiiiiii42iiiiiiiiii",
"iiiiii-ii44iiiiiiiiO++Oii#iiii+OoiXiiioii.#iiiiiiii2,ii51iiiiiii",
"iiiiiiiiiiiiiiiiiiii+Xiio+Oii#iiiio.i Oii++Xiiiiiiii900iiiiiiiii",
"iiiiiiiii9iiiiiiiiiiO.ii+i+ii#iiiio#O#OiiOi+iiiiiii4<0iiiiiiiiii",
"iiiiiiiii2>qiiiiiiiiO i.$o#.i#iiiio.i Oio#O$iiiiiii4000iiiiiiiii",
"iiiiiiiii90qiiiiiiiiO i+.i +i.+XXio iiOi+iiX@iiiiiiiq><iiiiiiiii",
"iiiiiiiiiiq1iiiiiiiiiiiiiiiiiiiiiiiiiiiiiiiiiiiiiiiiii9iiiiiiiii",
"iiiiiiiiiq09iiiiiiiiiiiiiiiiiiiiiiiiiiiiiiiiiiiiiiiii9qiiiiiiiii",
"iiiiiii15i4,2iiiiiiiiiiiiiiiiiiiiiiiiiiiiiiiiiiiiiiii49ii;iiiiii",
"iiiiiiiiiq<4iiiiiiiiiiiiiiiiiiiiiiiiiiiiiiiiiiiiiii<i40iiiiiiiii",
"iiiiiii4y>,0iiiiiiiiiiiiiiiiiiiiiiiiiiiiiiiiiiiii*iiq4iiiiiiiiii",
"iiiiiii6y3,<9iiiiiiiiiiiiiiiiiiiiiiiiiiiiiiiiiiiii4,<<qrqiiiiiii",
"iiiiiiiii4q45<iiiiiiiiiiiiiiiiiiiiiiiiiiiiiiiiiiii2q47r21iiiiiii",
"iiiiiiiiiii<iiiiiiiiiiiiiiiiiiiiiiiiiiiiiiiiiiiiii472ey8iiiiiiii",
"iiiiiiiiiir33-iiiiiiiiiiiiiiiiiiiiiiiiiiiiiiiiiiii94qii9iiiiiiii",
"iiiiiiii=iqi=iiiiiiiiiiiiiiiiiiiiiiiiiiiiiiiiiiiiy7,0,iiiiiiiiii",
"iiiiiiiii*9ii3iiiiiiiiiiiiiiiiiiiiiiiiiiiiiiiiii,<9-4iiiiiiiiiii",
"iiiiiiiiiiqii35iiiiiiiiiiiiiiiiiiiiiiiiiiiiiiii0q499rqiiiiiiiiii",
"iiiiiiiiiiiiii5iiiiiiiiiiiiiiiiiiiiiiiiiiiiiii540qqiy2<iiiiiiiii",
"iiiiiiiiiiiiiiiiii<iiiiiiiiiiiiiiiiiiiiiiiiii5tyqeq4iiiiiiiiiiii",
"iiiiiiiii%iiiii3>i,5iiiiiiiiiiiiiiiiiiiiiiiiii63qiiiiiiiiiiiiiii",
"iiiiiiiiiiiiiiiii097:iiiiiiiiiiiiiiiiiii,i4iiy84iiiiiiiiiiiiiiii",
"iiiiiiiiiiiiiiiiieq3<iiiii*iiiiiiiiiiiii5qqi80qqiiiiiiiiiiiiiiii",
"iiiiiiiiiiiiiiiiiqq9770749iiiiiiiiiiiii3q:0449iiiiiiiiiiiiiiiiii",
"iiiiiiiiiiiiiiiii3i0-,70y5q2iiii44i2iy0904:0i7iiiiiiiiiiiiiiiiii",
"iiiiiiiiiiiiiiiiiiyy4qq477qiyiiyy20,4035119qiii:iiiiiiiiiiiiiiii",
"iiiiiiiiiiiiiiiiii2ry<ir517440i<qqq7411wiyw0qiiiiiiiiiiiiiiiiiii",
"iiiiiiiiiiiiiiiiii<iiiiirriq0r03qyqiw,45iiq-q9i&iiiiiiiiiiiiiiii",
"iiiiiiiiiiiiiiiiiiiiii904riqiiiiiiy0yyuiii:iiiiiiiiiiiiiiiiiiiii",
"iiiiiiiiiiiiiiiiiiiiiiii2wiiiiiiiii4t70iiiiiiiiiiiiiiiiiiiiiiiii",
"iiiiiiiiiiiiiiiiiiiiiiiii7ii;iiiiiiiiiiiiiiiiiiiiiiiiiiiiiiiiiii",
"iiiiiiiiiiiiiiiiiiiiiiiiiiiiiiiiiiiiiiiiiiiiiiiiiiiiiiiiiiiiiiii",
"iiiiiiiiiiiiiiiiiiiiiiiiiiiiiiiiiiiiiiiiiiiiiiiiiiiiiiiiiiiiiiii",
"iiiiiiiiiiiiiiiiiiiiiiiiiiiiiiiiiiiiiiiiiiiiiiiiiiiiiiiiiiiiiiii",
"iiiiiiiiiiiiiiiiiiiiiiiiiiiiiiiiiiiiiiiiiiiiiiiiiiiiiiiiiiiiiiii",
"iiiiiiiiiiiiiiiiiiiiiiiiiiiiiiiiiiiiiiiiiiiiiiiiiiiiiiiiiiiiiiii",
"iiiiiiiiiiiiiiiiiiiiiiiiiiiiiiiiiiiiiiiiiiiiiiiiiiiiiiiiiiiiiiii"
};
