/* XPM */
static char *result[] = {
/* columns rows colors chars-per-pixel */
"16 16 25 1 ",
"  c #8E8FC9",
". c #8E8FCA",
"X c #9090CA",
"o c #9192CB",
"O c #9091CF",
"+ c #9192CE",
"@ c #8F90D0",
"# c #8F90D1",
"$ c #9192D0",
"% c #9293D1",
"& c #9293D2",
"* c #9292D3",
"= c #9494D2",
"- c #9596D2",
"; c #9696D2",
": c #9797D3",
"> c #9394D4",
", c #9595D4",
"< c #9899D1",
"1 c #9999D2",
"2 c #9A9BD3",
"3 c #9F9FD3",
"4 c #9999D6",
"5 c #9C9CD5",
"6 c None",
/* pixels */
"6666666666666666",
"6666666666666666",
"66666+&66> 66666",
"6666<O6666;66666",
"6661666666666666",
"66.%666666666666",
"66*6666666666#66",
"6666666666666666",
"6666666666666666",
"66@6666666666,66",
"666666666666:X66",
"6666666666632666",
"66666-6666$66666",
"66666o465=+66666",
"6666666666666666",
"6666666666666666"
};
